<?xml version="1.0" standalone="no"?>
<!DOCTYPE svg PUBLIC "-//W3C//DTD SVG 20010904//EN"
 "http://www.w3.org/TR/2001/REC-SVG-20010904/DTD/svg10.dtd">
<svg version="1.0" xmlns="http://www.w3.org/2000/svg"
 width="460.000000pt" height="460.000000pt" viewBox="0 0 460.000000 460.000000"
 preserveAspectRatio="xMidYMid meet">
<metadata>
Created by potrace 1.11, written by Peter Selinger 2001-2013
</metadata>
<g transform="translate(0.000000,460.000000) scale(0.100000,-0.100000)"
fill="#000000" stroke="none">
<path d="M810 4140 l-35 -5 0 -162 c0 -90 -2 -163 -5 -164 -3 -1 -75 -2 -160
-3 -85 -1 -160 -5 -165 -8 -7 -4 -10 -64 -8 -166 3 -145 1 -160 -15 -164 -9
-2 -87 -3 -172 -3 l-155 1 0 -508 0 -508 45 -1 c25 0 95 0 155 0 61 0 118 -2
127 -5 15 -5 17 -21 17 -152 -1 -81 -1 -155 0 -164 1 -16 16 -18 159 -18 86 0
162 -4 167 -8 6 -4 10 -72 10 -167 l1 -160 157 -2 c87 -1 164 -6 170 -11 8 -7
12 -57 11 -166 0 -104 3 -156 10 -157 6 -1 74 -3 151 -4 77 -1 148 -5 158 -10
15 -6 17 -24 17 -165 0 -117 3 -159 13 -162 6 -2 75 -3 152 -2 77 1 148 0 158
-3 15 -4 17 -21 17 -171 l0 -167 157 1 c87 0 164 -2 170 -4 10 -3 13 -45 12
-164 -1 -88 1 -162 4 -165 5 -4 234 -7 319 -4 16 1 18 18 20 169 l3 167 165 0
165 0 1 163 c1 89 4 166 8 170 4 4 80 7 169 7 l162 0 1 165 c1 91 2 167 3 170
0 3 75 5 166 4 111 0 165 3 166 10 1 6 2 79 2 163 1 83 5 154 8 158 4 3 79 6
168 7 l161 0 1 146 c1 81 2 156 3 167 1 19 9 20 168 23 l168 2 2 168 3 167
135 2 c74 1 149 3 166 3 l31 0 -1 508 -1 507 -157 0 c-91 0 -162 5 -167 10 -6
6 -12 81 -13 170 l-3 159 -165 1 -165 0 0 168 0 167 -25 1 c-30 1 -958 0 -980
0 -13 -1 -15 -25 -14 -162 0 -102 -4 -163 -10 -167 -6 -4 -81 -8 -166 -8 -85
-1 -157 -2 -160 -3 -3 -1 -4 -75 -3 -166 2 -149 0 -165 -15 -166 -69 -3 -281
-4 -299 -1 -22 4 -23 7 -25 170 l-3 166 -160 2 c-88 1 -163 2 -167 3 -5 0 -8
75 -8 166 0 164 0 165 -22 166 -116 3 -931 3 -958 -1z"/>
</g>
</svg>
